<mxfile host="app.diagrams.net" agent="Mozilla/5.0 (Windows NT 10.0; Win64; x64) AppleWebKit/537.36 (KHTML, like Gecko) Chrome/134.0.0.0 Safari/537.36" version="26.2.5">
  <diagram name="PÃ¡gina-1" id="P5ggLoMhWC76uwNewVu3">
    <mxGraphModel dx="2571" dy="2120" grid="1" gridSize="10" guides="1" tooltips="1" connect="1" arrows="1" fold="1" page="1" pageScale="1" pageWidth="827" pageHeight="1169" math="0" shadow="0">
      <root>
        <mxCell id="0" />
        <mxCell id="1" parent="0" />
        <mxCell id="kFTE4EnDNU3YSzorKRUh-22" value="" style="edgeStyle=orthogonalEdgeStyle;rounded=0;orthogonalLoop=1;jettySize=auto;html=1;" edge="1" parent="1" source="kFTE4EnDNU3YSzorKRUh-1" target="kFTE4EnDNU3YSzorKRUh-12">
          <mxGeometry relative="1" as="geometry" />
        </mxCell>
        <mxCell id="kFTE4EnDNU3YSzorKRUh-1" value="ESP calcula EMA TPS1" style="rounded=1;whiteSpace=wrap;html=1;" vertex="1" parent="1">
          <mxGeometry x="180" y="50" width="120" height="60" as="geometry" />
        </mxCell>
        <mxCell id="kFTE4EnDNU3YSzorKRUh-40" style="edgeStyle=orthogonalEdgeStyle;rounded=0;orthogonalLoop=1;jettySize=auto;html=1;entryX=1;entryY=0.5;entryDx=0;entryDy=0;" edge="1" parent="1" source="kFTE4EnDNU3YSzorKRUh-2" target="kFTE4EnDNU3YSzorKRUh-13">
          <mxGeometry relative="1" as="geometry" />
        </mxCell>
        <mxCell id="kFTE4EnDNU3YSzorKRUh-2" value="ESP calcula EMA TPS2" style="rounded=1;whiteSpace=wrap;html=1;" vertex="1" parent="1">
          <mxGeometry x="810" y="50" width="120" height="60" as="geometry" />
        </mxCell>
        <mxCell id="kFTE4EnDNU3YSzorKRUh-5" style="edgeStyle=orthogonalEdgeStyle;rounded=0;orthogonalLoop=1;jettySize=auto;html=1;exitX=1;exitY=0.5;exitDx=0;exitDy=0;entryX=0;entryY=0.5;entryDx=0;entryDy=0;" edge="1" parent="1" source="kFTE4EnDNU3YSzorKRUh-3" target="kFTE4EnDNU3YSzorKRUh-42">
          <mxGeometry relative="1" as="geometry">
            <mxPoint x="-30" y="-90" as="targetPoint" />
          </mxGeometry>
        </mxCell>
        <mxCell id="kFTE4EnDNU3YSzorKRUh-48" style="edgeStyle=orthogonalEdgeStyle;rounded=0;orthogonalLoop=1;jettySize=auto;html=1;entryX=0;entryY=0.5;entryDx=0;entryDy=0;exitX=1;exitY=0.5;exitDx=0;exitDy=0;" edge="1" parent="1" source="kFTE4EnDNU3YSzorKRUh-3" target="kFTE4EnDNU3YSzorKRUh-46">
          <mxGeometry relative="1" as="geometry">
            <mxPoint x="-99.99999999999955" y="-109.88888888888914" as="sourcePoint" />
            <Array as="points">
              <mxPoint x="-70" y="-70" />
              <mxPoint x="-70" y="-160" />
            </Array>
          </mxGeometry>
        </mxCell>
        <mxCell id="kFTE4EnDNU3YSzorKRUh-3" value="se determina modo normal (alfa 0.8) o eco (alfa 0.1)" style="rounded=1;whiteSpace=wrap;html=1;" vertex="1" parent="1">
          <mxGeometry x="-220" y="-100" width="120" height="60" as="geometry" />
        </mxCell>
        <mxCell id="kFTE4EnDNU3YSzorKRUh-6" style="edgeStyle=orthogonalEdgeStyle;rounded=0;orthogonalLoop=1;jettySize=auto;html=1;exitX=1;exitY=0.5;exitDx=0;exitDy=0;entryX=0;entryY=0.5;entryDx=0;entryDy=0;" edge="1" parent="1" source="kFTE4EnDNU3YSzorKRUh-4" target="kFTE4EnDNU3YSzorKRUh-1">
          <mxGeometry relative="1" as="geometry" />
        </mxCell>
        <mxCell id="kFTE4EnDNU3YSzorKRUh-4" value="muestreo de valores&lt;br&gt;100hz" style="rounded=1;whiteSpace=wrap;html=1;" vertex="1" parent="1">
          <mxGeometry x="-40" y="100" width="120" height="60" as="geometry" />
        </mxCell>
        <mxCell id="kFTE4EnDNU3YSzorKRUh-9" value="" style="edgeStyle=orthogonalEdgeStyle;rounded=0;orthogonalLoop=1;jettySize=auto;html=1;" edge="1" parent="1" source="kFTE4EnDNU3YSzorKRUh-44" target="kFTE4EnDNU3YSzorKRUh-2">
          <mxGeometry relative="1" as="geometry" />
        </mxCell>
        <mxCell id="kFTE4EnDNU3YSzorKRUh-7" value="se determina modo normal (alfa 0.8) o eco (alfa 0.1)" style="rounded=1;whiteSpace=wrap;html=1;" vertex="1" parent="1">
          <mxGeometry x="1170" y="-10" width="120" height="60" as="geometry" />
        </mxCell>
        <mxCell id="kFTE4EnDNU3YSzorKRUh-10" value="" style="edgeStyle=orthogonalEdgeStyle;rounded=0;orthogonalLoop=1;jettySize=auto;html=1;" edge="1" parent="1" source="kFTE4EnDNU3YSzorKRUh-8" target="kFTE4EnDNU3YSzorKRUh-2">
          <mxGeometry relative="1" as="geometry" />
        </mxCell>
        <mxCell id="kFTE4EnDNU3YSzorKRUh-8" value="muestreo de valores&lt;br&gt;100hz" style="rounded=1;whiteSpace=wrap;html=1;" vertex="1" parent="1">
          <mxGeometry x="1000" y="100" width="120" height="60" as="geometry" />
        </mxCell>
        <mxCell id="kFTE4EnDNU3YSzorKRUh-21" value="" style="edgeStyle=orthogonalEdgeStyle;rounded=0;orthogonalLoop=1;jettySize=auto;html=1;" edge="1" parent="1" source="kFTE4EnDNU3YSzorKRUh-12" target="kFTE4EnDNU3YSzorKRUh-14">
          <mxGeometry relative="1" as="geometry" />
        </mxCell>
        <mxCell id="kFTE4EnDNU3YSzorKRUh-38" style="edgeStyle=orthogonalEdgeStyle;rounded=0;orthogonalLoop=1;jettySize=auto;html=1;entryX=0;entryY=0.5;entryDx=0;entryDy=0;" edge="1" parent="1" source="kFTE4EnDNU3YSzorKRUh-12" target="kFTE4EnDNU3YSzorKRUh-16">
          <mxGeometry relative="1" as="geometry" />
        </mxCell>
        <mxCell id="kFTE4EnDNU3YSzorKRUh-12" value="ESP calcula Variacion EMA TPS1" style="rounded=1;whiteSpace=wrap;html=1;" vertex="1" parent="1">
          <mxGeometry x="180" y="160" width="120" height="60" as="geometry" />
        </mxCell>
        <mxCell id="kFTE4EnDNU3YSzorKRUh-37" style="edgeStyle=orthogonalEdgeStyle;rounded=0;orthogonalLoop=1;jettySize=auto;html=1;entryX=1;entryY=0.5;entryDx=0;entryDy=0;" edge="1" parent="1" source="kFTE4EnDNU3YSzorKRUh-13" target="kFTE4EnDNU3YSzorKRUh-16">
          <mxGeometry relative="1" as="geometry" />
        </mxCell>
        <mxCell id="kFTE4EnDNU3YSzorKRUh-13" value="ESP calcula Variacion EMA TPS2" style="rounded=1;whiteSpace=wrap;html=1;" vertex="1" parent="1">
          <mxGeometry x="650" y="50" width="120" height="60" as="geometry" />
        </mxCell>
        <mxCell id="kFTE4EnDNU3YSzorKRUh-23" style="edgeStyle=orthogonalEdgeStyle;rounded=0;orthogonalLoop=1;jettySize=auto;html=1;exitX=0;exitY=0.5;exitDx=0;exitDy=0;entryX=0.5;entryY=0;entryDx=0;entryDy=0;" edge="1" parent="1" source="kFTE4EnDNU3YSzorKRUh-14" target="kFTE4EnDNU3YSzorKRUh-15">
          <mxGeometry relative="1" as="geometry">
            <Array as="points">
              <mxPoint x="40" y="330" />
            </Array>
          </mxGeometry>
        </mxCell>
        <mxCell id="kFTE4EnDNU3YSzorKRUh-26" style="edgeStyle=orthogonalEdgeStyle;rounded=0;orthogonalLoop=1;jettySize=auto;html=1;entryX=0.5;entryY=0;entryDx=0;entryDy=0;exitX=1;exitY=0.5;exitDx=0;exitDy=0;" edge="1" parent="1" source="kFTE4EnDNU3YSzorKRUh-14" target="kFTE4EnDNU3YSzorKRUh-17">
          <mxGeometry relative="1" as="geometry" />
        </mxCell>
        <mxCell id="kFTE4EnDNU3YSzorKRUh-28" style="edgeStyle=orthogonalEdgeStyle;rounded=0;orthogonalLoop=1;jettySize=auto;html=1;exitX=0.5;exitY=1;exitDx=0;exitDy=0;entryX=0.5;entryY=0;entryDx=0;entryDy=0;" edge="1" parent="1" source="kFTE4EnDNU3YSzorKRUh-14" target="kFTE4EnDNU3YSzorKRUh-27">
          <mxGeometry relative="1" as="geometry" />
        </mxCell>
        <mxCell id="kFTE4EnDNU3YSzorKRUh-14" value="ESP calcula Variacion EMA TPS1" style="rounded=1;whiteSpace=wrap;html=1;" vertex="1" parent="1">
          <mxGeometry x="180" y="300" width="120" height="60" as="geometry" />
        </mxCell>
        <mxCell id="kFTE4EnDNU3YSzorKRUh-24" value="" style="edgeStyle=orthogonalEdgeStyle;rounded=0;orthogonalLoop=1;jettySize=auto;html=1;" edge="1" parent="1" source="kFTE4EnDNU3YSzorKRUh-15" target="kFTE4EnDNU3YSzorKRUh-19">
          <mxGeometry relative="1" as="geometry" />
        </mxCell>
        <mxCell id="kFTE4EnDNU3YSzorKRUh-15" value="Variacion EMA TPS1 &amp;gt; 0" style="rounded=1;whiteSpace=wrap;html=1;" vertex="1" parent="1">
          <mxGeometry x="-20" y="410" width="120" height="60" as="geometry" />
        </mxCell>
        <mxCell id="kFTE4EnDNU3YSzorKRUh-16" value="COMPARACION CONSTANTE CON ERR +- 2%" style="rounded=1;whiteSpace=wrap;html=1;" vertex="1" parent="1">
          <mxGeometry x="470" y="160" width="120" height="60" as="geometry" />
        </mxCell>
        <mxCell id="kFTE4EnDNU3YSzorKRUh-25" value="" style="edgeStyle=orthogonalEdgeStyle;rounded=0;orthogonalLoop=1;jettySize=auto;html=1;" edge="1" parent="1" source="kFTE4EnDNU3YSzorKRUh-17" target="kFTE4EnDNU3YSzorKRUh-20">
          <mxGeometry relative="1" as="geometry" />
        </mxCell>
        <mxCell id="kFTE4EnDNU3YSzorKRUh-17" value="Variacion EMA TPS1 &amp;lt;0" style="rounded=1;whiteSpace=wrap;html=1;" vertex="1" parent="1">
          <mxGeometry x="380" y="410" width="120" height="60" as="geometry" />
        </mxCell>
        <mxCell id="kFTE4EnDNU3YSzorKRUh-19" value="DIR STEP = 1" style="rounded=1;whiteSpace=wrap;html=1;" vertex="1" parent="1">
          <mxGeometry x="-20" y="520" width="120" height="60" as="geometry" />
        </mxCell>
        <mxCell id="kFTE4EnDNU3YSzorKRUh-20" value="DIR STEP = 0" style="rounded=1;whiteSpace=wrap;html=1;" vertex="1" parent="1">
          <mxGeometry x="380" y="520" width="120" height="60" as="geometry" />
        </mxCell>
        <mxCell id="kFTE4EnDNU3YSzorKRUh-41" value="" style="edgeStyle=orthogonalEdgeStyle;rounded=0;orthogonalLoop=1;jettySize=auto;html=1;" edge="1" parent="1" source="kFTE4EnDNU3YSzorKRUh-27" target="kFTE4EnDNU3YSzorKRUh-32">
          <mxGeometry relative="1" as="geometry" />
        </mxCell>
        <mxCell id="kFTE4EnDNU3YSzorKRUh-27" value="Valor de Variacion EMA TPS1 / 0,014&amp;nbsp;&lt;br&gt;= Pasos a dar" style="rounded=1;whiteSpace=wrap;html=1;" vertex="1" parent="1">
          <mxGeometry x="180" y="410" width="120" height="60" as="geometry" />
        </mxCell>
        <mxCell id="kFTE4EnDNU3YSzorKRUh-29" style="edgeStyle=orthogonalEdgeStyle;rounded=0;orthogonalLoop=1;jettySize=auto;html=1;entryX=0.5;entryY=0;entryDx=0;entryDy=0;exitX=1;exitY=0.5;exitDx=0;exitDy=0;" edge="1" target="kFTE4EnDNU3YSzorKRUh-30" parent="1">
          <mxGeometry relative="1" as="geometry">
            <mxPoint x="300" y="330" as="sourcePoint" />
          </mxGeometry>
        </mxCell>
        <mxCell id="kFTE4EnDNU3YSzorKRUh-30" value="Variacion EMA TPS1 &amp;lt;0" style="rounded=1;whiteSpace=wrap;html=1;" vertex="1" parent="1">
          <mxGeometry x="380" y="410" width="120" height="60" as="geometry" />
        </mxCell>
        <mxCell id="kFTE4EnDNU3YSzorKRUh-31" value="Variacion EMA TPS1 &amp;gt; 0" style="rounded=1;whiteSpace=wrap;html=1;" vertex="1" parent="1">
          <mxGeometry x="-20" y="410" width="120" height="60" as="geometry" />
        </mxCell>
        <mxCell id="kFTE4EnDNU3YSzorKRUh-32" value="STEP=x" style="rounded=1;whiteSpace=wrap;html=1;" vertex="1" parent="1">
          <mxGeometry x="180" y="520" width="120" height="60" as="geometry" />
        </mxCell>
        <mxCell id="kFTE4EnDNU3YSzorKRUh-43" style="edgeStyle=orthogonalEdgeStyle;rounded=0;orthogonalLoop=1;jettySize=auto;html=1;entryX=0;entryY=0.5;entryDx=0;entryDy=0;" edge="1" parent="1" source="kFTE4EnDNU3YSzorKRUh-42" target="kFTE4EnDNU3YSzorKRUh-1">
          <mxGeometry relative="1" as="geometry" />
        </mxCell>
        <mxCell id="kFTE4EnDNU3YSzorKRUh-42" value="Modo normal (alfa 0.8)" style="rounded=1;whiteSpace=wrap;html=1;" vertex="1" parent="1">
          <mxGeometry x="-40" y="-10" width="120" height="60" as="geometry" />
        </mxCell>
        <mxCell id="kFTE4EnDNU3YSzorKRUh-45" value="" style="edgeStyle=orthogonalEdgeStyle;rounded=0;orthogonalLoop=1;jettySize=auto;html=1;" edge="1" parent="1" source="kFTE4EnDNU3YSzorKRUh-7" target="kFTE4EnDNU3YSzorKRUh-44">
          <mxGeometry relative="1" as="geometry">
            <mxPoint x="1210" y="20" as="sourcePoint" />
            <mxPoint x="910" y="80" as="targetPoint" />
          </mxGeometry>
        </mxCell>
        <mxCell id="kFTE4EnDNU3YSzorKRUh-44" value="Modo normal (alfa 0.8) O ECO INDISTINTO" style="rounded=1;whiteSpace=wrap;html=1;" vertex="1" parent="1">
          <mxGeometry x="1000" y="-10" width="120" height="60" as="geometry" />
        </mxCell>
        <mxCell id="kFTE4EnDNU3YSzorKRUh-51" style="edgeStyle=orthogonalEdgeStyle;rounded=0;orthogonalLoop=1;jettySize=auto;html=1;exitX=1;exitY=0.5;exitDx=0;exitDy=0;entryX=0;entryY=0.5;entryDx=0;entryDy=0;" edge="1" parent="1" source="kFTE4EnDNU3YSzorKRUh-46" target="kFTE4EnDNU3YSzorKRUh-49">
          <mxGeometry relative="1" as="geometry">
            <mxPoint x="170" y="-199.99999999999977" as="targetPoint" />
            <Array as="points">
              <mxPoint x="130" y="-160" />
              <mxPoint x="130" y="-270" />
            </Array>
          </mxGeometry>
        </mxCell>
        <mxCell id="kFTE4EnDNU3YSzorKRUh-46" value="Modo normal (alfa 0.1)" style="rounded=1;whiteSpace=wrap;html=1;" vertex="1" parent="1">
          <mxGeometry x="-40" y="-190" width="120" height="60" as="geometry" />
        </mxCell>
        <mxCell id="kFTE4EnDNU3YSzorKRUh-50" style="edgeStyle=orthogonalEdgeStyle;rounded=0;orthogonalLoop=1;jettySize=auto;html=1;entryX=0;entryY=0.5;entryDx=0;entryDy=0;" edge="1" parent="1" source="kFTE4EnDNU3YSzorKRUh-47" target="kFTE4EnDNU3YSzorKRUh-49">
          <mxGeometry relative="1" as="geometry" />
        </mxCell>
        <mxCell id="kFTE4EnDNU3YSzorKRUh-47" value="muestreo de valores&lt;br&gt;25hz" style="rounded=1;whiteSpace=wrap;html=1;" vertex="1" parent="1">
          <mxGeometry x="-40" y="-300" width="120" height="60" as="geometry" />
        </mxCell>
        <mxCell id="kFTE4EnDNU3YSzorKRUh-53" style="edgeStyle=orthogonalEdgeStyle;rounded=0;orthogonalLoop=1;jettySize=auto;html=1;entryX=0;entryY=0.5;entryDx=0;entryDy=0;exitX=1;exitY=0.5;exitDx=0;exitDy=0;" edge="1" parent="1" source="kFTE4EnDNU3YSzorKRUh-54" target="kFTE4EnDNU3YSzorKRUh-52">
          <mxGeometry relative="1" as="geometry" />
        </mxCell>
        <mxCell id="kFTE4EnDNU3YSzorKRUh-56" value="" style="edgeStyle=orthogonalEdgeStyle;rounded=0;orthogonalLoop=1;jettySize=auto;html=1;" edge="1" parent="1" source="kFTE4EnDNU3YSzorKRUh-49" target="kFTE4EnDNU3YSzorKRUh-54">
          <mxGeometry relative="1" as="geometry" />
        </mxCell>
        <mxCell id="kFTE4EnDNU3YSzorKRUh-49" value="ESP calcula EMA TPS1 ECO" style="rounded=1;whiteSpace=wrap;html=1;" vertex="1" parent="1">
          <mxGeometry x="180" y="-300" width="120" height="60" as="geometry" />
        </mxCell>
        <mxCell id="kFTE4EnDNU3YSzorKRUh-52" value="COMPARACION CONSTANTE CON ERR +- 5%" style="rounded=1;whiteSpace=wrap;html=1;" vertex="1" parent="1">
          <mxGeometry x="414" y="-190" width="120" height="60" as="geometry" />
        </mxCell>
        <mxCell id="kFTE4EnDNU3YSzorKRUh-54" value="ESP calcula Variacion EMA TPS1 ECO" style="rounded=1;whiteSpace=wrap;html=1;" vertex="1" parent="1">
          <mxGeometry x="180" y="-190" width="120" height="60" as="geometry" />
        </mxCell>
        <mxCell id="kFTE4EnDNU3YSzorKRUh-57" value="ESP limita vel entre pasos max a 90 pasos/s" style="rounded=1;whiteSpace=wrap;html=1;" vertex="1" parent="1">
          <mxGeometry x="414" y="-300" width="120" height="60" as="geometry" />
        </mxCell>
        <mxCell id="kFTE4EnDNU3YSzorKRUh-59" value="" style="edgeStyle=orthogonalEdgeStyle;rounded=0;orthogonalLoop=1;jettySize=auto;html=1;exitX=0.5;exitY=0;exitDx=0;exitDy=0;entryX=0.5;entryY=1;entryDx=0;entryDy=0;" edge="1" parent="1" source="kFTE4EnDNU3YSzorKRUh-13" target="kFTE4EnDNU3YSzorKRUh-58">
          <mxGeometry relative="1" as="geometry">
            <mxPoint x="710" y="50" as="sourcePoint" />
            <mxPoint x="520" y="-80" as="targetPoint" />
          </mxGeometry>
        </mxCell>
        <mxCell id="kFTE4EnDNU3YSzorKRUh-58" value="Variacion EMA TPS2" style="rounded=1;whiteSpace=wrap;html=1;" vertex="1" parent="1">
          <mxGeometry x="650" y="-190" width="120" height="60" as="geometry" />
        </mxCell>
        <mxCell id="kFTE4EnDNU3YSzorKRUh-60" value="&lt;font style=&quot;font-size: 34px;&quot;&gt;&lt;b&gt;&lt;font style=&quot;color: light-dark(rgb(0, 0, 0), rgb(228, 12, 221));&quot;&gt;MODO ECO&lt;br&gt;&lt;br&gt;&lt;br&gt;&lt;br&gt;&lt;br&gt;&lt;/font&gt;&lt;/b&gt;&lt;br&gt;&lt;/font&gt;" style="rounded=1;whiteSpace=wrap;html=1;fillColor=#a20025;dashed=1;dashPattern=8 8;fontColor=#FFFFFF;strokeColor=#6F0000;fillStyle=cross-hatch;gradientColor=none;" vertex="1" parent="1">
          <mxGeometry x="-100" y="-390" width="900" height="300" as="geometry" />
        </mxCell>
      </root>
    </mxGraphModel>
  </diagram>
</mxfile>
